<svg width="1023" height="553" viewBox="0 0 1023 553" fill="none" xmlns="http://www.w3.org/2000/svg">
  <g filter="url(#filter0_d_12_2650)">
    <path d="M556.275 27.2851H707.151C817.608 27.2851 907.151 117.329 907.151 227.786V227.786C907.151 338.243 817.608 428.286 707.151 428.286H556.275V27.2851Z" fill="url(#paint0_linear_12_2650)"/>
  </g>
  <g filter="url(#filter1_d_12_2650)">
    <path d="M280.586 27.2851H431.462C541.919 27.2851 631.462 117.329 631.462 227.786V227.786C631.462 338.243 541.919 428.286 431.462 428.286H280.586V27.2851Z" fill="url(#paint1_linear_12_2650)"/>
  </g>
  <g filter="url(#filter2_d_12_2650)">
    <path d="M4.89795 27.2851H155.774C266.231 27.2851 355.774 117.329 355.774 227.786V227.786C355.774 338.243 266.231 428.286 155.774 428.286H4.89795V27.2851Z" fill="#4450A2"/>
  </g>
  <path d="M905.515 35.0566H920.363V42.9926H892.459V35.7606C897.067 32.6032 901.12 29.1046 904.619 25.2646C908.16 21.4246 909.931 18.0326 909.931 15.0886C909.931 13.2966 909.398 11.8886 908.331 10.8646C907.264 9.79789 905.643 9.26455 903.467 9.26455C899.84 9.26455 896.406 10.6086 893.163 13.2966V4.27255C894.571 3.24855 896.406 2.37389 898.667 1.64855C900.928 0.923218 903.147 0.560551 905.323 0.560551C909.675 0.560551 913.131 1.71255 915.691 4.01655C918.294 6.27788 919.595 9.45655 919.595 13.5526C919.595 20.9339 914.902 28.1019 905.515 35.0566ZM933.673 26.1606H942.889V7.21655L933.673 26.1606ZM957.289 26.1606V34.0966H952.169V42.9926H942.889V34.0966H924.521V26.1606L937.321 1.00855H952.169V26.1606H957.289Z" fill="#F8A23B"/>
  <path d="M9.4 546L16.824 459.728H38.456L50.488 490.96C52.536 496.165 54.2853 500.944 55.736 505.296C57.1867 509.648 58.1253 512.72 58.552 514.512L59.192 517.072C60.5573 511.44 63.544 502.736 68.152 490.96L80.312 459.728H101.944L110.904 546H91.192L87.992 512.592L86.328 487.376C84.1093 493.776 81.0373 502.181 77.112 512.592L64.952 545.104H53.304L41.272 512.592C39.3093 507.301 37.6453 502.565 36.28 498.384C34.9147 494.203 34.0187 491.301 33.592 489.68L32.952 487.376C32.952 493.435 32.568 501.84 31.8 512.592L29.112 546H9.4ZM145.41 530.256H179.202V546H125.57V459.728H178.69V475.472H145.41V495.056H175.106V510.672H145.41V530.256ZM214.907 528.72H246.779V546H195.195V459.728H214.907V528.72ZM277.407 530.256H287.775C297.503 530.256 302.367 526.928 302.367 520.272C302.367 513.616 297.546 510.288 287.903 510.288H277.407V530.256ZM277.407 475.472V494.8H284.703C289.823 494.8 293.663 493.861 296.223 491.984C298.868 490.107 300.191 487.632 300.191 484.56C300.191 478.501 296.095 475.472 287.903 475.472H277.407ZM257.695 459.728H291.231C300.703 459.728 307.914 461.989 312.863 466.512C317.812 470.949 320.287 476.624 320.287 483.536C320.287 488.059 319.092 492.027 316.703 495.44C314.314 498.853 311.199 501.157 307.359 502.352C317.343 505.339 322.335 512.08 322.335 522.576C322.335 529.403 319.86 535.035 314.911 539.472C310.047 543.824 303.391 546 294.943 546H257.695V459.728ZM331.995 502.608C331.995 489.381 335.792 478.715 343.387 470.608C351.067 462.416 361.264 458.32 373.979 458.32C386.779 458.32 396.976 462.373 404.571 470.48C412.166 478.587 415.963 489.296 415.963 502.608C415.963 515.835 412.123 526.544 404.443 534.736C396.848 542.843 386.694 546.896 373.979 546.896C361.179 546.896 350.982 542.843 343.387 534.736C335.792 526.629 331.995 515.92 331.995 502.608ZM358.747 483.408C354.992 488.101 353.115 494.501 353.115 502.608C353.115 510.715 354.992 517.157 358.747 521.936C362.502 526.629 367.579 528.976 373.979 528.976C380.379 528.976 385.456 526.629 389.211 521.936C392.966 517.157 394.843 510.715 394.843 502.608C394.843 494.501 392.966 488.101 389.211 483.408C385.456 478.629 380.379 476.24 373.979 476.24C367.579 476.24 362.502 478.629 358.747 483.408ZM479.237 512.72V459.728H498.949V512.592C498.949 523.856 495.792 532.475 489.477 538.448C483.162 544.336 474.629 547.28 463.877 547.28C453.296 547.28 444.805 544.336 438.405 538.448C432.005 532.56 428.805 524.24 428.805 513.488V459.728H448.517V513.36C448.517 524.027 453.637 529.36 463.877 529.36C474.117 529.36 479.237 523.813 479.237 512.72ZM534.657 475.728V500.048H544.001C552.534 500.048 556.801 495.867 556.801 487.504C556.801 483.835 555.692 480.976 553.473 478.928C551.254 476.795 548.225 475.728 544.385 475.728H534.657ZM559.361 546L540.673 516.048H534.657V546H514.945V459.728H544.769C554.412 459.728 562.134 462.288 567.937 467.408C573.825 472.528 576.769 479.184 576.769 487.376C576.769 499.664 571.521 508.155 561.025 512.848L582.913 546H559.361ZM593.57 546V459.728H615.202L635.298 495.44C638.114 500.475 640.546 505.211 642.594 509.648C644.727 514 646.093 517.072 646.69 518.864L647.714 521.68C646.861 515.365 646.434 506.619 646.434 495.44V459.728H666.146V546H644.514L623.906 510.288C621.175 505.68 618.743 501.157 616.61 496.72C614.562 492.197 613.154 488.869 612.386 486.736L611.362 483.536C612.642 491.216 613.282 500.133 613.282 510.288V546H593.57ZM702.66 530.256H736.452V546H682.82V459.728H735.94V475.472H702.66V495.056H732.356V510.672H702.66V530.256Z" fill="#4E5052"/>
  <defs>
    <filter id="filter0_d_12_2650" x="552.275" y="27.2851" width="358.876" height="409.001" filterUnits="userSpaceOnUse" color-interpolation-filters="sRGB">
      <feFlood flood-opacity="0" result="BackgroundImageFix"/>
      <feColorMatrix in="SourceAlpha" type="matrix" values="0 0 0 0 0 0 0 0 0 0 0 0 0 0 0 0 0 0 127 0" result="hardAlpha"/>
      <feOffset dy="4"/>
      <feGaussianBlur stdDeviation="2"/>
      <feComposite in2="hardAlpha" operator="out"/>
      <feColorMatrix type="matrix" values="0 0 0 0 0 0 0 0 0 0 0 0 0 0 0 0 0 0 0.25 0"/>
      <feBlend mode="normal" in2="BackgroundImageFix" result="effect1_dropShadow_12_2650"/>
      <feBlend mode="normal" in="SourceGraphic" in2="effect1_dropShadow_12_2650" result="shape"/>
    </filter>
    <filter id="filter1_d_12_2650" x="276.586" y="27.2851" width="358.876" height="409.001" filterUnits="userSpaceOnUse" color-interpolation-filters="sRGB">
      <feFlood flood-opacity="0" result="BackgroundImageFix"/>
      <feColorMatrix in="SourceAlpha" type="matrix" values="0 0 0 0 0 0 0 0 0 0 0 0 0 0 0 0 0 0 127 0" result="hardAlpha"/>
      <feOffset dy="4"/>
      <feGaussianBlur stdDeviation="2"/>
      <feComposite in2="hardAlpha" operator="out"/>
      <feColorMatrix type="matrix" values="0 0 0 0 0 0 0 0 0 0 0 0 0 0 0 0 0 0 0.25 0"/>
      <feBlend mode="normal" in2="BackgroundImageFix" result="effect1_dropShadow_12_2650"/>
      <feBlend mode="normal" in="SourceGraphic" in2="effect1_dropShadow_12_2650" result="shape"/>
    </filter>
    <filter id="filter2_d_12_2650" x="0.897949" y="27.2851" width="358.876" height="409.001" filterUnits="userSpaceOnUse" color-interpolation-filters="sRGB">
      <feFlood flood-opacity="0" result="BackgroundImageFix"/>
      <feColorMatrix in="SourceAlpha" type="matrix" values="0 0 0 0 0 0 0 0 0 0 0 0 0 0 0 0 0 0 127 0" result="hardAlpha"/>
      <feOffset dy="4"/>
      <feGaussianBlur stdDeviation="2"/>
      <feComposite in2="hardAlpha" operator="out"/>
      <feColorMatrix type="matrix" values="0 0 0 0 0 0 0 0 0 0 0 0 0 0 0 0 0 0 0.25 0"/>
      <feBlend mode="normal" in2="BackgroundImageFix" result="effect1_dropShadow_12_2650"/>
      <feBlend mode="normal" in="SourceGraphic" in2="effect1_dropShadow_12_2650" result="shape"/>
    </filter>
    <linearGradient id="paint0_linear_12_2650" x1="556.275" y1="227.786" x2="907.151" y2="227.786" gradientUnits="userSpaceOnUse">
      <stop stop-color="#C66AA9"/>
      <stop offset="1" stop-color="#F8A23B"/>
    </linearGradient>
    <linearGradient id="paint1_linear_12_2650" x1="280.586" y1="227.786" x2="631.462" y2="227.786" gradientUnits="userSpaceOnUse">
      <stop stop-color="#4450A2"/>
      <stop offset="0.807662" stop-color="#C66AA9"/>
    </linearGradient>
  </defs>
</svg>