<svg width="915" height="514" viewBox="0 0 915 514" fill="none" xmlns="http://www.w3.org/2000/svg">
  <path d="M550.735 0H700.42C810.645 0 900 89.3551 900 199.58C900 309.805 810.645 399.16 700.42 399.16H550.735V0Z" fill="url(#paint0_linear_42_437)"/>
  <path d="M276.312 0H425.997C536.222 0 625.577 89.3551 625.577 199.58C625.577 309.805 536.222 399.16 425.997 399.16H276.312V0Z" fill="#C66AA9"/>
  <path d="M1.88922 0H151.574C261.799 0 351.155 89.3551 351.155 199.58C351.155 309.805 261.799 399.16 151.574 399.16H1.88922V0Z" fill="#4450A2"/>
  <path d="M5.6 512L12.096 436.512H31.024L41.552 463.84C43.344 468.395 44.8747 472.576 46.144 476.384C47.4133 480.192 48.2347 482.88 48.608 484.448L49.168 486.688C50.3627 481.76 52.976 474.144 57.008 463.84L67.648 436.512H86.576L94.416 512H77.168L74.368 482.768L72.912 460.704C70.9707 466.304 68.2827 473.659 64.848 482.768L54.208 511.216H44.016L33.488 482.768C31.7707 478.139 30.3147 473.995 29.12 470.336C27.9253 466.677 27.1413 464.139 26.768 462.72L26.208 460.704C26.208 466.005 25.872 473.36 25.2 482.768L22.848 512H5.6ZM124.609 498.224H154.177V512H107.249V436.512H153.729V450.288H124.609V467.424H150.593V481.088H124.609V498.224ZM185.419 496.88H213.307V512H168.171V436.512H185.419V496.88ZM240.106 498.224H249.178C257.69 498.224 261.946 495.312 261.946 489.488C261.946 483.664 257.727 480.752 249.29 480.752H240.106V498.224ZM240.106 450.288V467.2H246.49C250.97 467.2 254.33 466.379 256.57 464.736C258.885 463.093 260.042 460.928 260.042 458.24C260.042 452.939 256.458 450.288 249.29 450.288H240.106ZM222.858 436.512H252.202C260.49 436.512 266.799 438.491 271.13 442.448C275.461 446.331 277.626 451.296 277.626 457.344C277.626 461.301 276.581 464.773 274.49 467.76C272.399 470.747 269.674 472.763 266.314 473.808C275.05 476.421 279.418 482.32 279.418 491.504C279.418 497.477 277.253 502.405 272.922 506.288C268.666 510.096 262.842 512 255.45 512H222.858V436.512ZM287.871 474.032C287.871 462.459 291.193 453.125 297.839 446.032C304.559 438.864 313.481 435.28 324.607 435.28C335.807 435.28 344.729 438.827 351.375 445.92C358.02 453.013 361.343 462.384 361.343 474.032C361.343 485.605 357.983 494.976 351.263 502.144C344.617 509.237 335.732 512.784 324.607 512.784C313.407 512.784 304.484 509.237 297.839 502.144C291.193 495.051 287.871 485.68 287.871 474.032ZM311.279 457.232C307.993 461.339 306.351 466.939 306.351 474.032C306.351 481.125 307.993 486.763 311.279 490.944C314.564 495.051 319.007 497.104 324.607 497.104C330.207 497.104 334.649 495.051 337.935 490.944C341.22 486.763 342.863 481.125 342.863 474.032C342.863 466.939 341.22 461.339 337.935 457.232C334.649 453.051 330.207 450.96 324.607 450.96C319.007 450.96 314.564 453.051 311.279 457.232ZM416.707 482.88V436.512H433.955V482.768C433.955 492.624 431.193 500.165 425.667 505.392C420.142 510.544 412.675 513.12 403.267 513.12C394.009 513.12 386.579 510.544 380.979 505.392C375.379 500.24 372.579 492.96 372.579 483.552V436.512H389.827V483.44C389.827 492.773 394.307 497.44 403.267 497.44C412.227 497.44 416.707 492.587 416.707 482.88ZM465.2 450.512V471.792H473.376C480.843 471.792 484.576 468.133 484.576 460.816C484.576 457.605 483.605 455.104 481.664 453.312C479.723 451.445 477.072 450.512 473.712 450.512H465.2ZM486.816 512L470.464 485.792H465.2V512H447.952V436.512H474.048C482.485 436.512 489.243 438.752 494.32 443.232C499.472 447.712 502.048 453.536 502.048 460.704C502.048 471.456 497.456 478.885 488.272 482.992L507.424 512H486.816ZM516.749 512V436.512H535.677L553.261 467.76C555.725 472.165 557.853 476.309 559.645 480.192C561.511 484 562.706 486.688 563.229 488.256L564.125 490.72C563.378 485.195 563.005 477.541 563.005 467.76V436.512H580.253V512H561.325L543.293 480.752C540.903 476.72 538.775 472.763 536.909 468.88C535.117 464.923 533.885 462.011 533.213 460.144L532.317 457.344C533.437 464.064 533.997 471.867 533.997 480.752V512H516.749ZM612.203 498.224H641.771V512H594.843V436.512H641.323V450.288H612.203V467.424H638.187V481.088H612.203V498.224Z" fill="#4E5052"/>
  <path d="M690.208 498.112H716.192V512H667.36V499.344C675.424 493.819 682.517 487.696 688.64 480.976C694.837 474.256 697.936 468.32 697.936 463.168C697.936 460.032 697.003 457.568 695.136 455.776C693.269 453.909 690.432 452.976 686.624 452.976C680.277 452.976 674.267 455.328 668.592 460.032V444.24C671.056 442.448 674.267 440.917 678.224 439.648C682.181 438.379 686.064 437.744 689.872 437.744C697.488 437.744 703.536 439.76 708.016 443.792C712.571 447.749 714.848 453.312 714.848 460.48C714.848 473.397 706.635 485.941 690.208 498.112ZM724.029 475.04C724.029 463.392 726.269 454.171 730.749 447.376C735.229 440.581 741.875 437.184 750.685 437.184C759.496 437.184 766.141 440.581 770.621 447.376C775.176 454.171 777.453 463.392 777.453 475.04C777.453 486.539 775.176 495.723 770.621 502.592C766.141 509.461 759.496 512.896 750.685 512.896C741.875 512.896 735.229 509.499 730.749 502.704C726.269 495.835 724.029 486.613 724.029 475.04ZM750.685 451.744C744.04 451.744 740.717 459.509 740.717 475.04C740.717 490.571 744.04 498.336 750.685 498.336C757.405 498.336 760.765 490.571 760.765 475.04C760.765 459.509 757.405 451.744 750.685 451.744ZM807.567 498.112H833.551V512H784.719V499.344C792.783 493.819 799.877 487.696 805.999 480.976C812.197 474.256 815.295 468.32 815.295 463.168C815.295 460.032 814.362 457.568 812.495 455.776C810.629 453.909 807.791 452.976 803.983 452.976C797.637 452.976 791.626 455.328 785.951 460.032V444.24C788.415 442.448 791.626 440.917 795.583 439.648C799.541 438.379 803.423 437.744 807.231 437.744C814.847 437.744 820.895 439.76 825.375 443.792C829.93 447.749 832.207 453.312 832.207 460.48C832.207 473.397 823.994 485.941 807.567 498.112ZM856.845 482.544H872.973V449.392L856.845 482.544ZM898.173 482.544V496.432H889.213V512H872.973V496.432H840.829V482.544L863.229 438.528H889.213V482.544H898.173Z" fill="#F8A23B"/>
  <defs>
    <linearGradient id="paint0_linear_42_437" x1="550.735" y1="199.58" x2="900" y2="199.58" gradientUnits="userSpaceOnUse">
      <stop stop-color="#F8A23B"/>
      <stop offset="1" stop-color="#F8A23B"/>
    </linearGradient>
  </defs>
</svg>
